<svg width="150" height="39" viewBox="0 0 150 39" fill="none" xmlns="http://www.w3.org/2000/svg">
<path d="M27.558 8.96033C27.6446 9.25463 27.6143 9.61292 27.7528 9.89016C27.7181 9.89443 27.6705 9.88163 27.6662 9.91149C27.7744 10.0437 27.9302 9.97974 28.0167 10.0608C27.7917 10.1589 27.7787 10.4745 27.3849 10.4063C27.4628 10.5641 27.6835 10.7006 27.6922 10.8584C27.4239 10.7176 27.1816 10.5556 26.9263 10.4063C26.9046 10.8712 27.2422 11.093 27.4066 11.4427C27.2335 11.5536 27.0431 11.5878 26.8181 11.5067C26.645 11.575 26.5195 11.6859 26.4892 11.8949C26.2339 11.9503 26.1733 12.1977 25.8748 12.219C25.8575 12.2361 25.8401 12.2489 25.8228 12.2617L25.8185 19.0094C26.0003 19.099 26.3291 19.3506 26.3378 19.4402C26.3464 19.5767 26.1041 19.6748 25.944 19.7004C25.9051 19.7046 25.8618 19.7132 25.8185 19.7132L25.8142 23.8718C26.0479 24.8657 26.8657 25.2837 27.4715 25.9064C27.5321 26.2135 27.6446 26.4694 27.7138 26.768C27.5797 26.7424 27.4499 26.7125 27.2984 26.704C27.2032 26.5931 27.0994 26.495 27.0344 26.3585C26.5585 26.2178 26.0219 25.7315 26.3334 25.1514C26.2988 25.0491 26.208 25.0021 26.1344 24.9382C26.0003 24.9638 25.8964 24.9424 25.8099 24.8998V25.4628L11.2619 25.4713C11.3095 25.7059 11.3874 25.9618 11.3138 26.2306C11.5215 26.576 11.8158 26.6955 11.9715 27.0068C12.0581 27.186 12.0191 27.3993 12.1013 27.6338C12.1663 27.8215 12.4086 28.0433 12.56 28.1926C12.7331 28.3675 12.8889 28.5893 13.0836 28.6874C13.4947 28.9006 14.0313 28.8665 14.5246 28.9689C14.8534 29.0371 15.1001 29.1821 15.4852 29.1651C15.7232 29.1523 16.0218 29.0329 16.2727 29.0585C16.4631 29.0755 16.5973 29.2461 16.818 29.2717C17.0084 29.5874 17.4281 29.6769 17.956 29.6599C18.0858 29.7665 18.2157 29.8774 18.3065 30.0267C18.1205 30.2655 17.9387 30.5854 17.9344 30.9309C18.5272 31.4897 18.9902 32.1721 19.5311 32.7863C19.4229 32.9314 19.3277 33.0892 19.358 33.3664C19.2585 33.4603 19.1027 33.473 19.0508 33.6053C18.9729 33.7972 19.0681 34.1001 18.9426 34.2963C19.1027 34.5863 19.5181 34.7228 19.6653 35.0299C19.7518 35.209 19.7648 35.354 19.8643 35.482C19.9509 35.5929 20.072 35.6995 20.2062 35.7934C21.2923 35.9512 22.4866 36.0322 23.7847 36.0152C24.1612 35.8787 24.4857 35.6953 24.6761 35.4394C24.7064 35.401 24.6588 35.3327 24.6978 35.2687C24.8449 35.1067 25.0266 34.9744 25.2214 34.8593C25.1954 34.6119 25.3079 34.4967 25.3728 34.3432C25.8921 33.9764 26.5758 33.7759 26.9479 33.264C26.8484 32.6029 26.9263 31.9119 26.7272 31.43C26.9695 31.2167 27.1037 30.8883 27.3849 30.6537C27.5104 30.547 27.6965 30.5044 27.822 30.3935C28.1076 30.1461 28.3975 29.6343 28.7826 29.3144C28.999 29.1352 29.3019 28.9092 29.4187 28.6874C29.4923 28.5424 29.4923 28.3376 29.5485 28.1713C29.5961 28.0305 29.6913 27.8428 29.7692 27.6765C29.8947 27.3993 30.1241 27.2244 29.9639 26.9215C29.8385 26.9045 29.7086 26.8832 29.5702 26.8789C29.1591 27.0111 28.3889 27.749 27.9518 27.395V27.1775C28.3413 27.0623 28.7437 26.7637 29.0466 26.5547C29.3581 26.3372 29.7216 26.1794 29.9423 25.9746C30.1241 25.8083 30.1933 25.5481 30.401 25.4372C30.7385 25.2581 31.115 25.241 31.2967 24.8529C31.3313 24.324 31.5001 23.9316 31.6472 23.5178C31.5001 23.3941 31.4698 23.215 31.3184 23.087C31.1756 22.9633 30.8683 22.9591 30.8597 22.6989C31.1539 22.5581 31.4958 22.5624 31.8419 22.6562C32.0843 22.3619 32.3612 22.1017 32.7809 21.9866C32.7723 22.0719 32.8372 22.0889 32.8675 22.1359C33.3694 22.1572 33.5512 22.4984 33.893 22.6733C34.0012 22.6434 34.0055 22.5112 34.1137 22.4771C34.4426 22.6904 34.4599 23.2107 34.5291 23.6842C34.6027 23.7951 34.7238 23.8548 34.7931 23.9657C34.7931 24.0936 34.832 24.1875 34.8147 24.3325C34.9532 24.4775 35.1176 24.5927 35.1652 24.8273C35.2821 24.8614 35.4465 24.8529 35.4508 24.9979C35.6412 24.4988 35.8446 24.0169 35.823 23.424C35.8143 23.2192 35.7321 23.0103 35.7364 22.797C35.7407 22.4003 35.9917 22.0463 36.1518 21.5899C36.2081 21.4364 36.1605 21.2274 36.1951 21.0738C36.2254 20.9373 36.3033 20.8179 36.3249 20.6857C36.3379 20.6131 36.3465 20.5534 36.3595 20.4937C35.4075 12.6157 30.2971 9.8731 27.558 8.96033Z" stroke="white" stroke-width="0.3535"/>
<path d="M24.78 31.0546C24.7454 30.948 24.6761 30.9266 24.7151 30.7944C24.767 30.7518 24.8925 30.7816 24.979 30.7731C25.0266 30.7774 24.9877 30.6963 25.0007 30.6665C25.1088 30.6537 25.1132 30.6537 25.2213 30.6665C25.1824 30.9053 25.0699 31.0674 24.78 31.0546Z" stroke="white" stroke-width="0.3535"/>
<path d="M28.999 19.0306C28.9168 19.0264 28.9124 18.9411 28.8908 18.8813C28.9644 18.8941 29.0076 18.9325 28.999 19.0306Z" stroke="white" stroke-width="0.3535"/>
<path d="M28.8259 18.8558C28.8692 18.8473 28.8951 18.9539 28.8475 18.9625C28.7653 18.9838 28.8086 18.8729 28.8259 18.8558Z" stroke="white" stroke-width="0.3535"/>
<path d="M28.2114 19.6321C28.2331 19.5382 28.285 19.4785 28.3196 19.3932C28.0384 18.9752 27.5018 18.6852 27.6186 18.0582C27.7441 17.9302 27.8523 17.7895 27.9908 17.67C28.0686 17.6743 28.0903 17.7298 28.1638 17.734C28.1985 17.6914 28.2417 17.653 28.2504 17.5847C28.311 17.5677 28.2937 17.6274 28.3369 17.6274C28.2374 17.8279 28.1941 18.0752 28.0081 18.1904C28.1336 18.5615 28.3542 18.8387 28.7091 18.988C28.8778 19.2909 29.0639 19.5724 29.211 19.8923C29.198 19.9818 29.1288 20.0117 29.1245 20.1098C28.9817 20.1482 28.787 20.1354 28.6442 20.1738C28.4884 20.0074 28.285 19.8837 28.2114 19.6321Z" stroke="white" stroke-width="0.3535"/>
<path d="M30.3967 23.2534C30.2149 23.279 30.0548 23.3344 29.8731 23.36C29.3495 23.2022 29.1678 22.7074 28.7134 22.4771C28.7091 22.4088 28.7394 22.3747 28.7567 22.3278C28.8778 22.2979 28.9947 22.3534 29.0206 22.1998C29.2759 22.4515 29.4923 22.7415 29.8515 22.8908C30.0462 22.8268 30.2755 22.7927 30.5092 22.7629C30.4962 22.9591 30.4832 23.0913 30.3967 23.2534Z" stroke="white" stroke-width="0.3535"/>
<path d="M28.7567 32.6071C28.6485 32.7479 28.5446 32.9313 28.4062 33.0166C28.3153 33.072 28.1941 33.072 28.0989 33.1232C27.7441 33.328 27.6273 33.6777 27.5321 34.0488C27.2292 34.0957 27.121 34.3346 27.0085 34.5649C27.4412 34.8976 28.0124 34.5052 28.2763 34.2194V34.0275C28.8086 33.5924 29.488 33.1872 29.2846 32.1507C29.025 32.1379 28.9341 32.3896 28.7567 32.6071Z" stroke="white" stroke-width="0.3535"/>
<path d="M35.8013 24.3325C35.6802 24.7377 35.8403 24.9723 35.9095 25.2581C36.1432 25.0747 36.1042 24.4008 35.9311 24.179C35.9225 24.2685 35.8489 24.2856 35.8013 24.3325Z" stroke="white" stroke-width="0.3535"/>
<path d="M25.8185 11.3915V11.6559C25.8704 11.6559 25.9267 11.6559 25.9786 11.6559C25.9959 11.4981 25.9094 11.4469 25.8185 11.3915Z" stroke="white" stroke-width="0.3535"/>
<path d="M26.156 10.129C26.1214 9.96694 25.9743 9.96694 25.8228 10.0181V10.5129C25.8878 10.4148 25.9354 10.3039 25.9613 10.1717C26.0392 10.1674 26.0868 10.1375 26.156 10.129Z" stroke="white" stroke-width="0.3535"/>
<path d="M81.8728 15.5417V17.3331H74.6161V11.9375H83.6902L81.8728 10.1376H74.6161L72.803 11.9375V17.3331L74.6161 19.1075H81.8728L83.6902 17.3331V13.7546H78.2466L76.4335 15.5417H81.8728Z" fill="white"/>
<path d="M61.8596 15.546H69.1163V13.7546H61.8596V11.9375H70.9294L69.1163 10.1418H60.0379V19.1075H69.1163L70.9294 17.3332H61.8596V15.546Z" fill="white"/>
<path d="M108.606 10.1418H99.4844V19.1075H101.306L101.302 15.5119H108.606L110.424 13.7247V11.9375L108.606 10.1418ZM101.302 13.7247V11.9375H108.606V13.7247H101.302Z" fill="white"/>
<path d="M150 15.5119L148.187 13.7247H140.926V11.9375H150L148.178 10.1418H140.926L139.065 11.9375V13.7247L140.926 15.5119H148.113V17.3033H139.065L140.926 19.1075H148.178L150 17.3033V15.5119Z" fill="white"/>
<path d="M126.863 17.3033H132.332L134.119 19.1075H125.045V10.1418H126.863V17.3033Z" fill="white"/>
<path d="M137.23 10.1418H135.417V19.1075H137.23V10.1418Z" fill="white"/>
<path d="M121.363 10.1418H114.097L112.237 11.9418V17.3076L114.097 19.1118H121.363L123.176 17.3076V11.9375L121.363 10.1418ZM114.063 17.3033V11.9375H121.363V17.3033H114.063Z" fill="white"/>
<path d="M95.1962 10.1418H87.9309L86.1178 11.9418V19.1075H87.9395V15.5033H95.2308V19.1075H97.0526V11.9375L95.1962 10.1418ZM87.9395 13.7204V11.9418H95.2308V13.7204H87.9395Z" fill="white"/>
<path d="M55.7929 10.1418H47.8958L46.0697 11.9375V19.1075H47.8871V11.9375H50.9421V19.1075H52.7595V11.9375H55.7929V19.1075H57.6103V11.9375L55.7929 10.1418Z" fill="white"/>
<path d="M12.9927 4.2343C12.9235 4.20444 13.0274 4.14473 12.9711 4.11913C12.811 4.18738 12.5817 4.17885 12.5254 4.34946C12.7461 4.39211 12.8586 4.3324 12.9927 4.2343ZM11.66 7.32238C11.4436 7.37783 11.5864 7.7873 11.3311 7.80436C11.2749 7.79156 11.2229 7.77024 11.145 7.78303C10.721 7.93658 10.4224 8.22236 10.1411 8.52093C10.0632 9.04556 9.63918 9.22471 9.65216 9.83465C10.2883 10.5384 10.6041 9.35693 11.1926 9.32707C11.2705 9.38252 11.3571 9.42518 11.4263 9.48916C11.7076 9.54887 11.9153 9.42518 12.1273 9.39532C12.6163 9.33134 12.9062 9.62138 13.3649 9.69389C13.5726 9.64697 13.7284 9.48062 13.9015 9.36973C13.962 9.33134 14.0356 9.32707 14.0875 9.27589C14.1524 9.22044 14.1654 9.11381 14.226 9.04556C14.4034 8.84936 14.7106 8.80244 14.9054 8.63183C15.1174 8.44415 15.2212 8.06454 15.5847 8.10293C15.5934 8.04322 15.6193 7.9963 15.654 7.96644C15.6756 7.88113 15.5501 7.94938 15.5588 7.8726C15.879 7.72758 16.2857 7.66787 16.6795 7.59536C16.6752 7.52711 16.8136 7.48446 16.7487 7.43328C16.4978 7.45887 16.4675 7.0622 16.1646 7.06646C16.1646 6.90011 16.2598 6.82334 16.2338 6.62713C15.8444 6.55889 15.5934 6.35415 15.4376 6.05132C15.3164 6.03426 15.2688 6.08544 15.1563 6.07264C15.0958 6.02573 15.165 5.95748 15.0871 5.95748C14.8231 5.96601 14.8102 5.72289 14.6414 5.63332C14.49 5.66317 14.3342 5.6845 14.1957 5.72715C14.187 5.64185 14.0918 5.64611 14.1265 5.51815C13.9015 5.54375 13.8409 5.39873 13.6375 5.40299C13.6851 5.32195 13.6288 5.27503 13.5683 5.24091C13.1226 5.31768 12.8586 5.56934 12.7504 5.97881C12.7547 6.05132 12.8759 6.00866 12.8673 6.09397C12.6639 6.55036 12.2528 6.79348 11.9326 7.13044C11.9153 7.22428 11.9672 7.24987 11.9542 7.33944C11.9196 7.35224 11.8936 7.37356 11.859 7.38636C11.7379 7.42901 11.7855 7.28826 11.66 7.32238ZM16.9175 18.2202C16.8699 18.1819 16.8742 18.0965 16.779 18.1051C16.7747 18.2032 16.7185 18.3055 16.8266 18.3354C16.8483 18.2885 16.9262 18.297 16.9175 18.2202ZM12.4994 4.21297C12.8543 4.14046 13.1572 4.01677 13.3865 3.82056C13.0101 3.64995 12.6596 3.95705 12.4994 4.21297ZM14.3948 15.6611C14.7063 15.3966 15.3727 15.4862 15.6107 15.1535C15.6713 14.8549 15.3424 14.6544 15.2818 14.4156C15.1823 14.0061 15.4116 13.6393 15.3035 13.1957C15.0308 12.8758 14.7539 13.3109 14.5808 13.4943C14.6803 13.5924 14.8188 13.6606 14.9097 13.7715C14.8058 14.4753 14.3904 14.872 14.0918 15.3838C14.1481 15.5203 14.3082 15.5544 14.3948 15.6611ZM17.8046 19.6022C17.7353 19.5681 17.718 19.4913 17.6185 19.487C17.5925 19.5595 17.5796 19.6491 17.5493 19.7174C17.8046 19.7856 17.9863 19.9306 18.181 20.0629C18.22 19.9008 18.3152 19.7984 18.4147 19.696C18.2892 19.4486 18.0253 19.4359 17.8046 19.6022ZM16.5194 18.7961C16.5713 19.0136 16.6622 19.1927 16.8223 19.3036C16.792 18.988 17.0733 18.9581 16.9391 18.6596C16.779 18.5188 16.6103 18.6681 16.5194 18.7961ZM13.4601 14.9018C13.8192 14.7696 14.6284 14.1042 14.0443 13.7971C13.75 14.0616 13.4168 14.2834 13.2264 14.6502C13.2697 14.7653 13.3735 14.8251 13.4601 14.9018ZM12.4994 5.04044C12.7807 5.01911 12.824 4.7632 13.0836 4.71628C13.062 4.80158 12.9235 4.77599 12.9451 4.89968C13.1269 5.07456 13.6851 4.78026 13.6678 5.17693C14.0053 5.2793 14.3861 5.20252 14.7669 5.24517C14.689 5.09589 14.8405 5.10868 14.8621 4.99352C14.8448 4.9466 14.7236 5.00632 14.7453 4.92528C14.8102 4.79732 14.8881 4.68215 14.9313 4.53287C14.8881 4.51154 14.8145 4.52434 14.7929 4.48595C14.8145 4.40064 14.9054 4.37932 14.9097 4.27695C14.8361 4.13619 14.6717 4.08075 14.5592 3.97838C14.2779 4.03383 14.0486 4.13619 13.8582 4.27695C13.8798 4.50301 14.2217 4.32387 14.3255 4.37079C14.1784 4.36226 14.2996 4.48168 14.3472 4.48595C14.1351 4.55846 13.9188 4.41344 13.6937 4.48595C13.5856 4.22577 13.2004 4.49022 13.1312 4.53287C13.2264 4.21297 13.6591 4.2215 13.8063 3.95705C13.7197 3.9144 13.6202 3.94852 13.5942 4.0253C13.1182 4.16179 12.6379 4.4177 12.5903 4.89968C12.5687 4.95513 12.5168 4.98073 12.4994 5.04044ZM13.4341 3.88881C13.7327 3.92719 13.8063 3.75232 13.9967 3.67981C13.7846 3.50066 13.6029 3.81203 13.4341 3.88881ZM19.4402 10.9394C18.9383 10.9692 18.9296 11.4811 18.4363 11.5152C18.2416 12.0185 17.7397 12.2232 17.1988 12.3896C17.004 12.6796 16.8656 12.9441 16.9651 13.426C17.1858 13.5156 17.4497 13.5625 17.7137 13.6094C17.8825 13.9208 18.0815 14.1981 18.2286 14.5307C18.3931 14.5265 18.5575 14.5265 18.696 14.5521C18.9902 14.2919 19.4878 14.0274 19.397 13.5369H19.5138C19.3926 13.3109 19.2109 13.1317 19.2585 12.846C19.3061 12.573 19.5528 12.4407 19.7475 12.2488C19.9379 12.0611 20.0547 11.8905 20.31 11.8564C20.2581 12.2616 19.9898 12.445 19.7734 12.6839C19.8427 13.0123 20.0547 13.2042 20.336 13.3279C20.3749 13.5284 20.3706 13.8014 20.2884 13.9507C19.86 13.9123 19.8773 14.3132 19.821 14.6416C19.4532 14.5947 19.1244 14.9146 18.7695 14.9402C18.6484 14.9487 18.5272 14.889 18.3974 14.872C18.1378 14.8336 17.7267 14.8848 17.6012 14.6886C17.6315 14.5734 17.7353 14.5307 17.8565 14.5052C17.7829 14.2706 17.6012 14.1426 17.5752 13.8611C17.2853 14.0274 17.3416 14.5393 17.1555 14.8037C17.069 14.7867 16.9997 14.7568 16.9002 14.7568C16.6535 14.9743 16.4026 14.9018 16.13 15.0341C15.7535 15.2132 15.6107 15.7421 15.126 15.8189C14.8015 15.8658 14.464 15.7506 14.1914 15.981C14.2866 16.3094 14.451 16.5696 14.4726 16.9705C14.2087 17.5804 13.2956 17.188 12.6942 17.1539C12.5254 17.4098 12.361 17.67 12.1792 17.9131C12.1619 18.2842 12.1489 18.5188 12.11 18.8558C12.4562 18.8942 12.6769 19.3377 13.0447 19.4103C13.3043 19.4614 13.5423 19.3676 13.6981 19.3164C13.8452 19.2738 14.0399 19.2738 14.1438 19.2226C14.4337 19.0861 14.5419 18.7833 14.6587 18.5316C14.8145 18.4292 14.9573 18.4506 15.126 18.3226C15.2905 18.1989 15.3727 17.9131 15.5458 17.862C15.7102 17.8108 15.8963 17.8875 16.0607 17.8833C16.3593 17.8833 16.593 17.798 16.8786 17.7468C16.9435 17.9942 17.1641 18.0965 17.3675 18.2757C17.532 18.4164 17.6574 18.5913 17.7873 18.6681C18.0166 18.7961 18.3195 18.8131 18.4883 19.0349C18.5835 19.325 18.4623 19.4998 18.5575 19.7046C18.657 19.7088 18.6743 19.6321 18.7695 19.6363C18.8301 19.4444 18.7912 19.1501 18.934 19.0392C19.0421 19.0434 18.9989 19.1927 19.1373 19.1629C19.2239 18.9581 19.0032 18.7278 18.7652 18.7022C18.5964 18.4164 18.2633 18.2927 17.969 18.1264C17.9301 17.9558 17.8392 17.8406 17.8305 17.6444C17.9863 17.6999 18.1637 17.6487 18.3195 17.7127C18.458 17.7724 18.5359 17.9686 18.67 18.0582C18.9383 18.2416 19.371 18.3141 19.4662 18.634C19.4273 18.7363 19.3407 18.7833 19.3277 18.9112C19.3667 19.1927 19.7475 19.2524 19.8643 19.4401C20.0028 19.6576 19.9595 19.9562 20.1456 20.178C20.3273 20.1226 20.336 20.2121 20.4744 20.2463C20.574 20.1396 20.6908 20.1524 20.8466 20.178C20.8682 19.9903 20.6432 20.0373 20.6345 19.8794C20.6821 19.8069 20.7947 19.9349 20.799 19.8112C20.6389 19.6534 20.5826 19.3932 20.5177 19.1415C20.6389 18.8302 21.0673 18.9624 21.3875 18.924C21.3529 15.5331 21.2533 12.7521 21.0976 10.4787C20.8466 10.2825 20.5783 10.3635 20.2148 10.4318C19.7734 10.5128 19.5917 10.6877 19.4402 10.9394ZM13.9491 3.45375C14.1741 3.33432 14.3731 3.45801 14.5116 3.27034C14.5116 3.23195 14.4467 3.25754 14.4424 3.22342C14.6154 3.12532 14.8231 3.05707 15.0049 2.97177C14.5722 2.96324 14.226 3.23195 13.9491 3.45375ZM15.2818 2.76277C15.2948 2.92058 15.152 2.92485 15.0958 3.01442C15.2559 2.98883 15.4333 2.9803 15.5631 2.92058C15.5501 2.82675 15.5761 2.76277 15.6107 2.71158C15.4722 2.6604 15.4116 2.74997 15.2818 2.76277ZM13.9015 10.6152C13.6461 10.5214 13.2827 10.564 13.036 10.4318C12.9884 10.5512 12.9019 10.6365 12.8716 10.7773C12.9668 11.0332 13.1355 11.2081 13.3865 11.3062C13.6375 11.1569 13.9664 11.0801 14.2996 11.0076C14.1914 10.8754 14.0918 10.6877 13.9015 10.6152ZM18.7652 8.24369C18.6916 8.52946 19.0292 8.69154 19.1373 8.93467C19.4532 8.87069 19.7302 8.76832 19.7691 8.42709C19.8513 8.46975 19.9552 8.49107 20.0504 8.52093C20.1283 8.39724 20.2321 8.3034 20.3057 8.17544C20.0287 8.11146 19.6739 7.99203 19.6739 8.35885C19.5484 8.26928 19.4229 8.17544 19.2758 8.1072C19.1114 8.15838 18.908 8.17118 18.7652 8.24369ZM21.1928 20.5704C21.2317 20.4681 21.0456 20.4126 20.9591 20.3614C20.9158 20.4041 20.9418 20.515 20.9375 20.5918C21.0846 20.5918 21.0673 20.4851 21.1928 20.5704ZM14.2996 3.79924C14.4294 3.73952 14.689 3.69687 14.7193 3.61583C14.689 3.53905 14.1265 3.6073 14.2996 3.79924ZM2.14883 16.4459C2.24835 16.0791 2.36519 15.6013 2.38249 15.226C2.26133 15.5715 2.11421 16.0193 2.14883 16.4459ZM2.12719 16.9961C2.26999 16.9534 2.29162 16.5824 2.17479 16.4885C2.13152 16.6207 2.05796 16.8425 2.12719 16.9961ZM19.6523 21.3979C19.648 21.4107 19.648 21.4192 19.6436 21.432C20.1023 21.4363 20.5696 21.4363 21.0456 21.4363C20.7124 21.3254 20.3792 21.2102 20.0461 21.1889C19.9249 21.2657 19.7648 21.3126 19.6523 21.3979ZM2.37384 14.8634C2.34355 14.9743 2.31326 15.0852 2.2873 15.1961V15.2004C2.31326 15.1066 2.36951 14.9743 2.37384 14.8634ZM18.0166 21.1462C17.6661 21.0737 17.4195 21.2529 17.2464 20.9372C17.1512 20.7709 17.2074 20.5747 17.1512 20.3828C17.0906 20.1738 16.9391 20.0245 16.8699 19.7856C16.6752 19.7685 16.5151 19.8368 16.3333 19.8325C15.9915 19.824 15.654 19.696 15.2818 19.6491C14.9097 19.6022 14.3774 19.6406 14.0659 19.696C13.8712 19.7302 13.6851 19.8794 13.5293 19.8581C13.3519 19.8325 13.1961 19.4785 12.9927 19.4913C12.8153 19.4998 12.6466 19.8453 12.4778 19.9306C12.3437 19.9946 12.1836 19.9648 12.0581 19.9989C11.9066 20.0415 11.8114 20.1311 11.66 20.1354C11.6037 20.1908 11.7162 20.1951 11.6816 20.2974C11.5215 20.5278 11.3701 20.805 11.1191 20.9671C10.9763 21.0609 10.8205 21.1206 10.6647 21.1718C12.7937 21.3041 15.3467 21.3936 18.4017 21.4278C18.2719 21.2955 18.1464 21.1718 18.0166 21.1462ZM2.43009 14.9487C2.55558 14.6672 2.65511 14.2364 2.66376 13.908C2.59885 14.0872 2.5426 14.2706 2.48635 14.4582C2.4474 14.6203 2.42144 14.7867 2.43009 14.9487ZM8.38862 8.14985C8.41026 7.6636 9.01174 7.51005 9.28002 7.13897C9.29733 7.11338 9.31464 7.08352 9.33195 7.05793C9.41849 6.90438 9.48773 6.68685 9.39253 6.46932C9.15453 6.61434 8.93385 6.72097 8.64393 6.88305C8.46218 6.98542 8.15063 7.34371 7.99052 7.39062C7.86936 7.42475 7.74387 7.36503 7.64002 7.39062C7.38472 7.45034 7.26788 7.70199 7.00825 7.78303C7.15105 7.41622 7.57944 7.34797 7.84773 7.11338C7.98187 6.99822 8.09437 6.78068 8.24583 6.60581C8.45786 6.36268 8.6872 6.20487 8.76076 5.91483C9.20213 5.62905 9.54831 5.17693 10.1844 5.1556C10.1022 5.27077 10.2623 5.31768 10.3229 5.3646C10.0719 5.42432 9.90314 5.56507 9.7863 5.75701C9.82092 5.76981 9.90746 5.73142 9.90314 5.77834C9.85121 5.85085 9.78198 5.90203 9.7387 5.98734C10.1108 5.82526 10.2796 5.46271 10.695 5.34328C10.6993 5.45844 10.6604 5.47977 10.7166 5.55228C10.9893 5.64185 11.1277 5.31769 11.396 5.45844C10.972 5.73142 10.9633 6.41387 10.206 6.35842C10.0979 6.32003 10.1108 6.16222 10.02 6.10677C9.97237 6.14942 9.84688 6.11956 9.81227 6.17501C9.82525 6.60154 9.51369 6.81054 9.33195 7.06646C9.32329 7.08779 9.31031 7.10485 9.29733 7.12191C9.293 7.13044 9.28435 7.13897 9.28002 7.1475C9.21944 7.25413 9.18482 7.3693 9.20646 7.51432C9.75601 7.68493 9.82957 7.09632 10.2104 6.95983C10.1714 7.1475 10.02 7.31385 10.1152 7.44181C10.2277 7.38636 10.3575 7.34371 10.4873 7.30532C10.6777 7.16883 10.7123 6.9385 10.8378 6.75083C11.0152 6.48638 11.3744 6.35842 11.5388 6.08117C11.5734 5.9916 11.435 6.07691 11.4696 5.98734C11.6903 5.80393 11.9239 5.63758 12.1706 5.47977C12.2485 5.23238 12.4259 5.08736 12.5427 4.88262C12.4648 4.8485 12.3134 4.90822 12.2615 4.88262C12.4172 4.81438 12.5817 4.75466 12.612 4.55846C12.0018 4.57126 11.6037 4.79305 11.396 5.20252C11.2878 5.19399 11.2143 5.15134 11.1623 5.08736C11.4999 4.7504 11.9629 4.5414 12.3999 4.30254C12.0105 4.26842 11.7941 4.63524 11.4869 4.53287C11.6686 4.4177 12.0148 4.46889 12.0711 4.2343C12.0797 4.14899 11.9629 4.18738 11.9326 4.14046C12.2225 3.92719 12.4432 3.64568 12.798 3.4964C12.6682 3.67554 12.3869 3.7054 12.3307 3.95705C12.8153 3.74379 13.4038 3.63289 13.8495 3.38124C14.2044 2.94617 14.9832 2.93338 15.4636 2.62201C14.9832 2.56656 14.7453 2.74144 14.4813 2.89926C14.5246 2.90352 14.5981 2.87793 14.5765 2.94617C14.3082 2.92058 13.9923 3.08266 13.737 3.08266H13.7327H13.7111C13.7197 3.08266 13.7284 3.08266 13.737 3.08266C13.75 3.08266 13.7587 3.0784 13.7543 3.06134C14.252 2.90352 14.6198 2.62628 15.2039 2.55377C16.3333 2.04619 17.8522 1.93103 19.4359 1.87132C19.4316 1.86705 19.4316 1.86279 19.4273 1.85852C17.0819 1.87558 14.8361 2.3405 12.7807 3.17224C12.6163 3.25328 12.4518 3.33005 12.2917 3.40683C11.9023 3.58597 11.5215 3.76511 11.1364 3.93999C10.1757 4.45183 9.26704 5.0447 8.42324 5.71436C8.28477 5.83379 8.1463 5.95748 8.01216 6.07691C7.7482 6.3115 7.46261 6.54183 7.18999 6.78495C6.35052 7.58683 5.59326 8.46548 4.92688 9.41665C4.71917 9.75787 4.5158 10.0948 4.28213 10.4062C4.21289 10.5171 4.14798 10.6323 4.07875 10.7474C3.97922 10.9948 3.8321 11.2166 3.70229 11.4384C3.6417 11.5536 3.58545 11.6687 3.5292 11.7839C3.51189 11.8351 3.49025 11.882 3.47727 11.9332C3.58545 11.7327 3.69363 11.5322 3.84941 11.3787C3.84076 11.4384 3.88403 11.4555 3.94461 11.4469C4.33405 11.2721 4.48118 10.8541 4.78408 10.5939C4.78841 10.7346 4.82303 10.8455 4.87928 10.9394C4.92688 10.6451 5.37258 10.6323 5.58028 10.8029C5.52403 10.9223 5.38989 10.9692 5.36825 11.127C5.54566 11.1185 5.59759 11.2379 5.69712 11.3104C5.84857 10.8711 6.06493 10.4915 6.37648 10.2057C6.40245 10.001 6.38081 9.74934 6.54092 9.67683C6.69237 9.84744 6.63179 10.2313 6.77458 10.4147C6.81786 10.547 6.93902 10.3252 7.00825 10.4147C6.84815 10.6408 6.53226 10.7133 6.35485 10.9223C6.30725 11.3318 6.17311 11.7924 6.49332 12.0057C6.67073 11.7156 6.94334 11.4384 6.91305 11.0161C7.08181 10.6664 7.29385 10.3635 7.61406 10.1631C7.68762 9.89862 7.81311 9.74507 7.91696 9.51901C7.99485 9.3484 8.06408 9.16926 8.15063 9.01144C8.32372 8.68728 8.60498 8.47401 8.7348 8.18397C8.69585 8.14132 8.46651 8.21383 8.38862 8.14985ZM5.32498 9.65124C5.29469 9.51475 5.3769 9.48489 5.42018 9.42091C5.50672 9.44224 5.312 9.56167 5.44181 9.5574C5.41152 9.59579 5.39421 9.64697 5.32498 9.65124ZM5.65384 8.98158C5.71442 8.78111 5.88751 8.68728 6.00435 8.54226C5.98271 8.69154 5.81395 8.89628 5.65384 8.98158ZM5.72308 8.56785C5.78366 8.38444 6.07791 8.15411 6.25965 8.08587C6.2034 8.27354 5.90049 8.41856 5.72308 8.56785ZM6.47168 7.99203C6.53659 7.7873 6.67506 7.4546 6.84382 7.27973C6.96931 7.58683 6.60582 7.78303 6.47168 7.99203Z" stroke="white" stroke-width="0.3535"/>
<path d="M25.481 7.00678L25.468 25.0959L7.11642 25.1087C7.11642 25.1087 8.69152 38.89 27.9648 35.9682C13.5812 36.9748 9.86851 29.485 8.95114 26.3883H26.5455V8.74703C29.5182 9.53184 37.5538 13.0038 36.5066 27.5528C39.4578 8.56362 25.481 7.00678 25.481 7.00678ZM32.8026 5.12152C28.1509 1.12492 21.8461 -0.875506 17.8175 0.365698L17.8002 1.02256C17.8002 1.02256 17.6531 1.10786 17.4454 1.12066L17.4021 1.12492L17.3589 1.13345C13.248 1.73486 9.52233 3.58601 6.58418 6.49068C3.63736 9.39109 1.75937 13.0678 1.14923 17.1198L1.14058 17.1667L1.13625 17.2137C1.13193 17.2904 1.03673 17.6573 1.03673 17.6573L0.370341 17.5506C-0.884542 21.5131 1.13193 27.7148 5.17351 32.2915C7.85204 35.3284 13.6937 40.1951 22.7635 38.7321C26.9868 38.1776 30.8164 36.3137 33.8324 33.3408C36.8355 30.3849 38.7222 26.6315 39.2977 22.4941C39.4924 21.3467 39.5789 20.2548 39.5789 19.2141C39.5833 12.1166 35.4854 7.42905 32.8026 5.12152ZM2.35652 17.299C2.90607 13.6564 4.60233 10.146 7.44529 7.33948C10.2882 4.53717 13.8452 2.86517 17.5363 2.32347C21.5822 2.0249 21.2057 12.091 21.2057 20.8946C12.2831 20.8946 2.08391 21.2657 2.35652 17.299ZM38.0904 22.332C37.5755 26.0514 35.8706 29.6385 32.9713 32.4963C30.0591 35.3711 26.394 37.0516 22.5991 37.5464C7.77848 39.9605 -0.53404 24.4476 1.53868 17.9174C0.924221 20.178 2.68538 22.1145 22.4433 22.1145C22.4433 2.64337 20.4701 0.907392 18.181 1.51307C24.8146 -0.530016 40.5872 7.68497 38.0904 22.332Z" fill="white"/>
<path d="M46.7101 28.265V24.3367H48.229C48.943 24.3367 49.1593 24.904 49.1593 25.4542C49.1593 25.7911 49.0685 26.1665 48.7872 26.3883C48.5535 26.5717 48.2376 26.6271 47.952 26.6229H47.4544V28.2693H46.7101V28.265ZM47.4544 26.0428H47.8525C48.1771 26.0428 48.3934 25.9063 48.3934 25.4286C48.3934 24.9765 48.2117 24.9082 47.7919 24.9082H47.4501V26.0428H47.4544Z" fill="white"/>
<path d="M52.8288 28.265V24.3367H54.9232V24.9125H53.5731V25.902H54.8193V26.4779H53.5731V27.6892H54.9232V28.265H52.8288Z" fill="white"/>
<path d="M58.6964 28.265V24.3367H59.4407V26.0812H59.4494C59.5662 25.7698 59.7566 25.4243 59.9167 25.1385L60.3537 24.3367H61.1932L60.211 26.0257L61.2408 28.2693H60.4013L59.7003 26.7167L59.4407 27.1432V28.2693H58.6964V28.265Z" fill="white"/>
<path d="M66.5157 28.265V24.9125H65.6502V26.6101C65.6502 27.5698 65.6329 28.3589 64.5122 28.3589V27.7233C64.9579 27.7233 64.9579 27.3522 64.9579 26.5973V24.3367H67.2599V28.265H66.5157V28.265Z" fill="white"/>
<path d="M70.8558 28.265L71.8078 24.3367H72.8117L73.7161 28.265H72.9199L72.7251 27.2712H71.8554L71.6607 28.265H70.8558ZM71.9679 26.6954H72.604L72.4006 25.5779C72.3617 25.3945 72.3487 25.2153 72.327 25.0319C72.3227 24.9423 72.3097 24.8528 72.3011 24.7717H72.2924C72.2838 24.857 72.2708 24.9466 72.2665 25.0319C72.2448 25.2153 72.2275 25.3945 72.1929 25.5779L71.9679 26.6954Z" fill="white"/>
<path d="M78.052 28.265H77.3077V24.3367H78.4933L78.8914 26.1622C78.9563 26.4608 78.9996 26.7636 79.0299 27.0707H79.0385C79.0775 26.6826 79.1035 26.4224 79.1554 26.1622L79.5535 24.3367H80.7348V28.265H79.9905V27.0281C79.9905 26.2475 80.0078 25.467 80.0554 24.6864H80.0468L79.2506 28.265H78.8006L78.0173 24.6864H77.9914C78.039 25.467 78.0563 26.2475 78.0563 27.0281V28.265H78.052Z" fill="white"/>
<path d="M84.6336 28.265V24.3367H85.3779V25.8935H86.4207V24.3367H87.165V28.265H86.4207V26.4693H85.3779V28.265H84.6336Z" fill="white"/>
<path d="M99.2855 26.2135C99.2638 26.5888 99.2379 26.9727 99.2119 27.331H99.2206C99.4023 26.6912 99.5624 26.2263 99.7528 25.7699L100.333 24.341H101.103V28.2693H100.359V27.5314C100.359 27.2158 100.376 26.8234 100.398 26.431C100.419 26.0343 100.449 25.6334 100.475 25.3092H100.467C100.294 25.9277 100.134 26.4054 99.9345 26.8703L99.3547 28.2693H98.5801V24.341H99.3244V25.113C99.3244 25.4585 99.3071 25.8338 99.2855 26.2135ZM100.748 23.2064C100.683 23.6969 100.354 23.9656 99.8567 23.9656C99.2811 23.9656 98.9523 23.6457 98.9653 23.2064H99.3114C99.3374 23.4581 99.5494 23.5732 99.8307 23.5732C100.207 23.5732 100.367 23.4581 100.406 23.2064H100.748Z" fill="white"/>
<path d="M112.064 28.265H111.215L110.791 27.3053C110.722 27.1475 110.67 26.9812 110.636 26.8063H110.627C110.597 27.0665 110.48 27.3053 110.372 27.5399L110.043 28.265H109.229L110.207 26.2731L109.268 24.3324H110.103L110.506 25.2238C110.575 25.3859 110.644 25.5395 110.649 25.7144H110.666C110.688 25.4584 110.809 25.2281 110.908 24.9978L111.194 24.3324H112.033L111.077 26.2731L112.064 28.265Z" fill="white"/>
<path d="M115.538 25.9874C115.569 24.9851 115.651 24.2429 116.841 24.2429C118.031 24.2429 118.113 24.9851 118.143 25.9874V26.5462C118.143 27.5955 118.065 28.3589 116.841 28.3589C115.616 28.3589 115.538 27.5955 115.538 26.5462V25.9874ZM116.304 26.913C116.304 27.2372 116.33 27.7661 116.841 27.7661C117.373 27.7661 117.377 27.2286 117.377 26.849V25.8467C117.377 25.531 117.395 24.8358 116.841 24.8358C116.257 24.8358 116.304 25.5225 116.304 25.8253V26.913Z" fill="white"/>
<path d="M123.596 28.265V24.9125H122.73V26.6101C122.73 27.5698 122.713 28.3589 121.592 28.3589V27.7233C122.038 27.7233 122.038 27.3522 122.038 26.5973V24.3367H124.34V28.265H123.596V28.265Z" fill="white"/>
<path d="M130.207 28.8323V28.265H128.589V28.8323H127.905V27.6892C127.962 27.6892 128.091 27.6807 128.135 27.6593C128.351 27.5356 128.368 27.1816 128.368 26.5845V24.3367H130.67V27.6892H130.9V28.8323H130.207ZM129.926 24.9125H129.061V26.6015C129.061 26.9982 129.043 27.4034 128.857 27.6935H129.926V24.9125Z" fill="white"/>
<path d="M136.361 28.265V27.5271C136.361 27.2115 136.378 26.8191 136.4 26.4267C136.421 26.03 136.452 25.6291 136.478 25.3049H136.469C136.291 25.9234 136.136 26.4011 135.937 26.866L135.357 28.265H134.578V24.3367H135.322V25.1087C135.322 25.4584 135.305 25.8381 135.283 26.2134C135.262 26.5887 135.236 26.9726 135.21 27.3309H135.218C135.4 26.6911 135.56 26.2262 135.751 25.7698L136.33 24.3409H137.101V28.2693H136.361V28.265Z" fill="white"/>
<path d="M91.8123 25.9234H92.31C92.5955 25.9191 92.9114 25.9745 93.1451 26.158C93.4264 26.3755 93.5172 26.7551 93.5172 27.0921C93.5172 27.7361 93.1494 28.265 92.3749 28.265H91.0637V24.3367H91.808V25.9234H91.8123ZM92.1498 27.6892C92.5696 27.6892 92.7513 27.5655 92.7513 27.1134C92.7513 26.6357 92.535 26.4992 92.2061 26.4992H91.808V27.6892H92.1498ZM93.9283 24.3367H94.6726V28.265H93.9283V24.3367Z" fill="white"/>
<path d="M141.012 28.265V24.3367H141.757V25.8935H142.8V24.3367H143.544V28.265H142.8V26.4693H141.757V28.265H141.012Z" fill="white"/>
<path d="M147.447 28.265V24.3367H149.572V24.9125H148.187V28.265H147.447Z" fill="white"/>
</svg>
