<svg width="15" height="15" viewBox="0 0 15 15" fill="none" xmlns="http://www.w3.org/2000/svg">
<path d="M0 14.0625C0 14.5803 0.419736 15 0.9375 15H14.0625C14.5803 15 15 14.5803 15 14.0625C15 13.5447 14.5803 13.125 14.0625 13.125H0.9375C0.419736 13.125 0 13.5447 0 14.0625ZM8.1629 11.0926C7.97982 11.2757 7.73994 11.3672 7.5 11.3672C7.26012 11.3672 7.02012 11.2757 6.8371 11.0926L3.51548 7.77103C3.14935 7.4049 3.14935 6.81132 3.51548 6.4452C3.8816 6.07907 4.47519 6.07907 4.84131 6.4452L6.5625 8.16639V0.9375C6.5625 0.419736 6.98224 0 7.5 0C8.01776 0 8.4375 0.419736 8.4375 0.9375V8.16639L10.1587 6.4452C10.5248 6.07907 11.1184 6.07907 11.4845 6.4452C11.8506 6.81132 11.8506 7.4049 11.4845 7.77103L8.1629 11.0926Z" fill="white"/>
</svg>
