<svg width="794" height="719" viewBox="0 0 794 719" fill="none" xmlns="http://www.w3.org/2000/svg">
<g opacity="0.05">
<path d="M656.958 455.685C650.522 457.577 642.686 456.915 636.623 459.943C636.529 459.186 636.809 458.145 636.156 458.051C633.265 460.416 634.664 463.823 632.892 465.716C630.746 460.795 623.843 460.511 625.336 451.899C621.884 453.603 618.899 458.429 615.448 458.618C618.526 452.751 622.071 447.452 625.336 441.868C615.168 441.395 610.318 448.776 602.669 452.372C600.243 448.587 599.497 444.423 601.269 439.502C599.777 435.717 597.352 432.972 592.781 432.31C591.568 426.727 586.158 425.402 585.691 418.872C585.318 418.493 585.038 418.115 584.759 417.736L437.188 417.642C435.229 421.616 429.726 428.809 427.767 428.998C424.782 429.187 422.636 423.888 422.077 420.386C421.983 419.534 421.797 418.588 421.797 417.642L330.848 417.547C309.114 422.657 299.972 440.543 286.353 453.792C279.637 455.117 274.04 457.577 267.51 459.091C268.07 456.158 268.723 453.319 268.91 450.007C271.335 447.925 273.48 445.653 276.465 444.234C279.544 433.824 290.178 422.09 302.864 428.903C305.102 428.146 306.129 426.159 307.528 424.55C306.968 421.616 307.434 419.345 308.367 417.452L296.054 417.452L295.868 99.2928C290.737 100.334 285.14 102.037 279.264 100.428C271.708 104.971 269.096 111.406 262.287 114.813C258.369 116.705 253.705 115.854 248.574 117.652C244.47 119.071 239.619 124.371 236.355 127.683C232.53 131.468 227.679 134.875 225.534 139.134C220.87 148.124 221.616 159.859 219.377 170.647C217.885 177.839 214.713 183.233 215.086 191.656C215.366 196.861 217.978 203.39 217.419 208.879C217.045 213.043 213.314 215.977 212.754 220.803C205.852 224.967 203.893 234.146 204.266 245.692C201.934 248.531 199.509 251.37 196.244 253.357C191.02 249.288 184.024 245.313 176.468 245.219C164.248 258.183 149.323 268.309 135.891 280.138C132.719 277.773 129.268 275.691 123.205 276.353C121.153 274.177 120.873 270.77 117.981 269.634C113.783 267.931 107.16 270.013 102.87 267.268C96.5264 270.77 93.5415 279.855 86.8253 283.072C82.9075 284.965 79.7359 285.249 76.9374 287.425C74.5121 289.318 72.1802 291.968 70.128 294.901C66.6766 318.655 64.9042 344.774 65.2773 373.164C68.2623 381.397 72.2734 388.494 77.8703 392.658C78.7098 393.321 80.2023 392.28 81.6015 393.132C85.1462 396.349 88.0378 400.324 90.5564 404.582C95.9667 404.014 98.4854 406.475 101.843 407.894C109.866 419.251 114.25 434.203 125.444 442.341C139.902 440.165 155.014 441.868 165.554 437.515C170.218 442.814 177.401 445.748 182.531 451.899C184.863 454.644 185.796 458.713 188.222 461.457C193.632 467.703 204.826 474.044 211.822 482.466C215.739 487.198 220.683 493.822 225.534 496.377C228.705 497.986 233.183 497.986 236.821 499.216C239.899 500.257 244.004 502.339 247.641 504.043C253.705 506.787 257.529 511.803 264.152 508.301C264.525 505.557 264.992 502.718 265.085 499.689C262.193 490.699 246.056 473.854 253.798 464.296L258.555 464.296C261.074 472.813 267.604 481.614 272.174 488.239C276.932 495.052 280.383 503.002 284.861 507.828C288.498 511.803 294.189 513.317 296.614 517.859C300.532 525.241 300.905 533.474 309.393 537.448C320.96 538.206 329.542 541.896 338.59 545.114C341.295 541.896 345.213 541.234 348.012 537.922C350.717 534.799 350.81 528.08 356.5 527.89C359.579 534.326 359.485 541.802 357.433 549.372C363.869 554.672 369.56 560.728 372.078 569.908C370.213 569.719 369.839 571.138 368.813 571.801C368.347 582.778 360.884 586.753 357.06 594.229C357.713 596.595 360.605 596.689 361.351 599.055C356.687 606.247 345.307 606.626 334.952 608.14C332.527 609.749 331.221 612.399 328.796 613.913C325.997 613.913 323.945 614.764 320.774 614.386C317.602 617.414 315.084 621.01 309.953 622.051C309.207 624.606 309.393 628.202 306.222 628.297C317.136 632.461 327.676 636.909 340.643 636.436C345.12 636.246 349.691 634.448 354.355 634.543C363.03 634.638 370.772 640.126 380.753 643.628C384.111 644.858 388.682 643.817 392.04 644.574C395.025 645.237 397.637 646.94 400.529 647.413C402.115 647.697 403.421 647.886 404.726 648.17C577.016 627.351 636.996 515.588 656.958 455.685Z" stroke="#0E1C32" stroke-width="7.73093"/>
<path d="M173.763 394.929C176.095 394.172 176.562 392.658 179.453 393.51C180.386 394.645 179.733 397.39 179.92 399.283C179.827 400.324 181.599 399.472 182.252 399.756C182.532 402.122 182.532 402.216 182.252 404.582C177.028 403.73 173.484 401.27 173.763 394.929Z" stroke="#0E1C32" stroke-width="7.73093"/>
<path d="M436.724 487.2C436.817 485.402 438.682 485.307 439.988 484.834C439.709 486.443 438.869 487.389 436.724 487.2Z" stroke="#0E1C32" stroke-width="7.73093"/>
<path d="M440.546 483.412C440.733 484.359 438.401 484.927 438.214 483.886C437.748 482.087 440.173 483.034 440.546 483.412Z" stroke="#0E1C32" stroke-width="7.73093"/>
<path d="M423.57 469.976C425.623 470.45 426.929 471.585 428.794 472.342C437.936 466.191 444.279 454.456 457.991 457.011C460.789 459.756 463.868 462.122 466.48 465.15C466.386 466.853 465.174 467.327 465.08 468.935C466.013 469.692 466.853 470.639 468.345 470.828C468.718 472.153 467.412 471.774 467.412 472.721C463.028 470.544 457.618 469.598 455.099 465.529C446.984 468.273 440.921 473.099 437.656 480.859C431.033 484.55 424.876 488.619 417.88 491.837C415.921 491.553 415.268 490.039 413.123 489.944C412.283 486.821 412.563 482.563 411.724 479.44C415.362 476.033 418.067 471.585 423.57 469.976Z" stroke="#0E1C32" stroke-width="7.73093"/>
<path d="M344.374 517.766C343.814 513.791 342.601 510.29 342.042 506.315C345.493 494.865 356.314 490.89 361.351 480.953C362.843 480.859 363.59 481.521 364.616 481.9C365.269 484.549 364.056 487.105 367.414 487.672C361.911 493.256 355.568 497.988 352.303 505.842C353.702 510.101 354.448 515.116 355.101 520.227C350.81 519.943 347.918 519.659 344.374 517.766Z" stroke="#0E1C32" stroke-width="7.73093"/>
<path d="M139.811 481.9C136.732 479.534 132.721 477.263 130.855 474.235C129.643 472.248 129.643 469.598 128.523 467.516C124.046 459.756 116.397 457.201 108.282 455.119C107.255 448.494 102.032 446.129 96.9946 443.668C89.7187 453.132 98.3005 465.623 104.55 471.396L108.748 471.396C118.263 483.036 127.124 497.893 149.792 493.446C150.071 487.768 144.568 485.78 139.811 481.9Z" stroke="#0E1C32" stroke-width="7.73093"/>
<path d="M320.773 635.963C311.911 633.314 306.781 636.815 300.531 638.329C304.542 643.44 319.281 642.588 324.131 638.802C322.172 638.613 321.799 637.004 320.773 635.963Z" stroke="#0E1C32" stroke-width="7.73093"/>
<path d="M603.789 417.642L598.006 417.642C598.006 418.777 598.006 420.008 598.006 421.143C601.457 421.522 602.577 419.629 603.789 417.642Z" stroke="#0E1C32" stroke-width="7.73093"/>
<path d="M631.399 425.025C634.944 424.268 634.944 421.05 633.824 417.738L623.004 417.738C625.149 419.158 627.574 420.199 630.466 420.766C630.559 422.47 631.212 423.511 631.399 425.025Z" stroke="#0E1C32" stroke-width="7.73093"/>
<path d="M760.315 137.147C760.968 135.633 762.274 137.904 762.833 136.674C761.341 133.172 761.527 128.157 757.796 126.927C756.863 131.753 758.169 134.213 760.315 137.147ZM692.779 108C691.567 103.268 682.612 106.391 682.239 100.808C682.518 99.5773 682.985 98.4417 682.705 96.7383C679.347 87.4642 673.097 80.9344 666.567 74.7832C655.094 73.0798 651.176 63.8057 637.837 64.0896C622.445 78.0008 648.284 84.9091 648.937 97.7793C647.725 99.4827 646.792 101.375 645.393 102.89C644.087 109.041 646.792 113.583 647.445 118.22C648.844 128.914 642.501 135.254 640.915 145.286C641.941 149.828 645.579 153.235 648.004 157.02C648.844 158.345 648.937 159.954 650.057 161.089C651.269 162.509 653.601 162.793 655.094 164.118C659.385 167.998 660.411 174.717 664.142 178.975C668.246 183.612 676.548 185.884 675.709 193.833C677.015 194.022 678.041 194.59 678.694 195.347C680.559 195.82 679.067 193.076 680.746 193.265C683.918 200.268 685.224 209.164 686.809 217.775C688.302 217.681 689.235 220.709 690.354 219.289C689.794 213.801 698.469 213.138 698.376 206.514C702.014 206.514 703.693 208.596 707.984 208.028C709.477 199.511 713.954 194.022 720.577 190.615C720.95 187.966 719.831 186.925 720.111 184.464C721.137 183.139 722.629 184.653 722.629 182.95C722.443 177.177 727.76 176.893 729.718 173.203C729.066 169.89 728.599 166.484 727.666 163.455C729.532 163.266 729.439 161.184 732.237 161.941C731.677 157.02 734.849 155.695 734.756 151.248C736.528 152.289 737.554 151.058 738.3 149.733C736.621 139.986 731.118 134.213 722.163 131.848C720.577 131.942 721.51 134.592 719.644 134.403C709.663 129.955 704.346 120.965 696.977 113.962C694.925 113.583 694.365 114.719 692.406 114.435C692.126 113.678 691.66 113.11 691.38 112.353C690.447 109.703 693.526 110.744 692.779 108ZM454.447 222.98C455.286 221.939 457.152 222.034 456.965 219.952C454.82 219.857 452.581 218.627 451.928 220.993C452.954 221.466 452.768 223.169 454.447 222.98ZM760.781 126.359C762.367 134.119 765.072 140.743 769.363 145.759C773.094 137.526 766.378 129.86 760.781 126.359ZM510.415 167.808C516.199 174.622 514.24 189.196 521.516 194.401C528.045 195.726 532.429 188.533 537.653 187.208C546.608 185.032 554.63 190.048 564.331 187.682C571.328 181.72 561.813 175.663 557.802 171.878C555.656 174.054 554.164 177.083 551.739 179.07C536.347 176.799 527.672 167.714 516.478 161.184C513.493 162.414 512.747 165.916 510.415 167.808ZM424.224 242.38C424.97 240.866 426.649 240.487 426.742 238.311C425.156 237.743 423.198 237.459 421.705 236.797C420.213 242.38 417.041 246.355 414.149 250.613C417.694 251.465 419.933 253.547 422.171 255.724C427.582 252.979 427.862 247.206 424.224 242.38ZM441.854 214.274C437.096 215.409 433.179 217.397 430.753 220.898C437.656 220.236 438.309 226.387 444.839 223.453C447.917 219.952 444.652 216.261 441.854 214.274ZM527.019 147.368C529.911 155.222 544.463 172.919 551.179 160.143C545.395 153.708 540.545 146.421 532.523 142.257C530.004 143.204 528.698 145.475 527.019 147.368ZM742.685 126.359C743.151 132.51 748.748 133.456 749.774 139.134C747.908 138.661 748.468 135.633 745.763 136.106C741.938 140.081 748.375 152.289 739.7 151.91C737.461 159.291 739.14 167.619 738.207 175.947C741.472 174.244 741.192 177.556 743.711 178.029C744.737 177.65 743.431 175.001 745.203 175.474C748.002 176.893 750.52 178.597 753.785 179.543C754.251 178.597 753.972 176.988 754.811 176.515C756.677 176.988 757.143 178.975 759.382 179.07C762.46 177.461 763.673 173.865 765.911 171.405C764.699 165.253 762.46 160.238 759.382 156.074C754.438 156.547 758.356 164.023 757.33 166.294C757.516 163.077 754.904 165.727 754.811 166.768C753.225 162.13 756.397 157.399 754.811 152.478C760.501 150.112 754.718 141.689 753.785 140.175C760.781 142.257 760.594 151.721 766.378 154.938C767.311 153.046 766.564 150.869 764.885 150.301C761.9 139.891 756.304 129.387 745.763 128.346C744.55 127.873 743.99 126.737 742.685 126.359ZM767.87 146.8C767.031 153.329 770.855 154.938 772.441 159.102C776.359 154.465 769.549 150.49 767.87 146.8ZM613.677 278.152C613.024 267.174 601.83 266.985 601.084 256.197C590.077 251.938 585.6 240.961 581.962 229.131C575.618 224.873 569.835 221.845 559.294 224.021C557.335 228.847 556.309 234.62 555.283 240.393C548.474 244.084 542.41 248.437 535.135 251.654C535.228 255.25 535.228 258.846 534.668 261.875C540.358 268.31 546.142 279.193 556.869 277.205L556.869 279.761C561.813 277.111 565.731 273.136 571.981 274.177C577.95 275.218 580.842 280.612 585.04 284.871C589.144 289.035 592.875 291.59 593.622 297.173C584.76 296.038 580.749 290.17 575.525 285.439C568.343 286.953 564.145 291.59 561.44 297.741C557.056 298.593 551.086 298.498 547.821 296.7C548.66 287.331 539.892 287.71 532.709 286.48C533.735 278.436 526.739 271.244 526.18 263.484C525.993 260.834 527.299 258.184 527.672 255.345C528.512 249.667 527.392 240.677 531.683 237.932C534.202 238.595 535.135 240.866 535.694 243.516C540.825 241.907 543.623 237.932 549.78 237.365C546.142 231.024 534.948 232.254 529.165 228.185C529.538 226.292 530.191 224.778 530.191 222.602C525.433 217.207 527.019 211.719 524.127 205.757C520.21 197.524 508.643 194.401 506.964 183.802C505.938 176.704 508.456 169.323 503.419 163.361C496.236 165.443 490.546 169.039 481.778 169.512C468.439 163.739 477.021 143.771 477.767 130.617C472.17 126.927 466.48 123.33 461.163 119.356C453.047 118.977 447.917 118.693 440.548 117.842C439.708 125.412 430.007 130.239 428.421 138.283C427.302 143.961 429.354 149.166 430.473 152.572C431.406 155.79 431.406 160.048 432.526 162.32C435.511 168.66 442.134 171.026 447.637 173.581C449.876 176.988 449.409 180.111 452.208 183.802C454.913 187.398 461.163 189.196 462.282 192.981C463.402 196.577 461.723 200.647 461.816 204.243C461.816 210.772 463.681 215.883 464.801 222.128C459.39 223.548 457.152 228.374 453.234 232.822C450.156 236.418 446.331 239.163 444.652 242.002C441.854 247.017 441.481 253.642 436.63 257.332C430.287 259.414 426.462 256.765 421.985 258.846C421.892 261.023 423.571 261.402 423.477 263.484C427.675 264.808 434.111 263.957 436.537 267.08C436.443 269.445 433.179 268.499 433.832 271.527C438.309 273.42 443.346 268.594 443.906 263.389C450.156 259.698 452.861 252.411 456.499 245.976C460.23 245.125 462.749 243.137 467.04 242.948C465.827 246.355 466.946 250.235 465.547 253.642C464.241 256.67 459.95 258.373 457.991 261.307C453.98 267.174 452.394 276.638 445.398 278.72C443.16 277.868 442.134 275.975 439.335 275.691C433.179 276.543 431.873 284.871 427.768 287.426C423.011 290.454 416.481 289.508 411.631 293.577C412.843 297.552 410.884 297.741 410.138 300.769C412.47 302.946 412.19 305.501 411.631 308.908C415.735 309.381 414.709 304.46 418.16 304.271C419.746 305.312 416.948 307.772 419.653 307.867C423.104 304.365 428.794 303.135 434.298 301.716C441.107 304.365 438.216 313.734 439.055 320.737C513.214 319.98 574.033 317.804 623.751 314.397C628.042 308.908 626.27 303.041 624.778 295.091C623.005 285.439 619.181 281.464 613.677 278.152ZM777.385 158.061C779.997 162.982 777.292 167.335 781.396 170.364C782.236 170.364 781.676 168.944 782.422 168.849C784.568 172.635 786.06 177.177 787.926 181.152C788.112 171.688 782.236 164.118 777.385 158.061ZM792.497 187.208C789.045 187.492 788.952 184.369 786.993 183.139C787.553 186.641 787.739 190.521 789.045 193.36C791.097 193.076 792.497 193.644 793.616 194.401C794.735 191.372 792.776 190.048 792.497 187.208ZM620.766 157.02C622.819 151.437 621.886 143.488 624.778 138.093C622.166 137.052 620.3 135.16 617.222 134.497C611.625 136.579 607.8 140.27 605.655 145.759C608.92 151.248 610.599 158.44 612.185 165.727C615.076 163.361 619.181 161.184 620.766 157.02ZM672.631 263.389C666.381 261.78 662.836 269.162 657.519 271.527C658.918 278.436 661.157 284.492 668.62 285.344C667.687 287.142 667.22 289.413 666.567 291.495C669.272 293.199 671.325 295.47 674.123 297.079C675.522 291.022 678.134 283.262 670.112 283.262C672.071 280.518 674.123 277.773 675.616 274.556C674.496 270.96 674.216 266.512 672.631 263.389ZM403.049 316.479C405.288 317.33 406.5 313.261 407.62 311.368C406.687 310.422 404.261 310.99 402.582 310.895C402.582 314.113 404.914 313.734 403.049 316.479ZM769.829 165.727C771.135 168.566 772.068 174.244 773.84 174.906C775.519 174.244 774.027 161.941 769.829 165.727ZM493.251 -100.006C501.274 -97.8293 511.721 -95.2742 519.93 -94.8957C512.374 -97.5454 502.58 -100.763 493.251 -100.006ZM481.218 -100.479C482.151 -97.3562 490.266 -96.883 492.319 -99.4381C489.427 -100.384 484.576 -101.993 481.218 -100.479ZM384.952 282.789C384.673 282.694 384.486 282.694 384.206 282.6C384.113 292.631 384.113 302.851 384.113 313.261C386.538 305.974 389.057 298.687 389.523 291.401C387.844 288.751 386.818 285.249 384.952 282.789ZM527.859 -95.0849C525.433 -95.7474 523.008 -96.4098 520.583 -96.9776L520.489 -96.9776C522.542 -96.4098 525.433 -95.1796 527.859 -95.0849ZM390.456 247.017C392.042 239.352 388.124 233.958 395.027 230.172C398.665 228.09 402.956 229.321 407.153 228.09C411.724 226.766 414.989 223.453 420.213 221.939C420.586 217.681 419.093 214.179 419.186 210.205C419.373 202.728 422.171 195.347 423.198 187.208C424.224 179.07 423.384 167.43 422.171 160.616C421.425 156.358 418.16 152.289 418.627 148.882C419.186 145.002 426.929 141.595 426.649 137.147C426.462 133.267 418.907 129.576 417.041 125.886C415.642 122.952 416.295 119.45 415.548 116.706C414.616 113.394 412.657 111.312 412.563 108C411.351 106.77 411.258 109.23 409.019 108.473C403.982 104.971 397.918 101.659 394.374 96.1705C392.322 93.0476 391.016 89.6407 389.896 86.2339C387.005 132.794 385.046 188.628 384.299 255.44C387.191 252.601 389.896 249.856 390.456 247.017ZM525.993 -93.8547C532.15 -91.1103 541.571 -88.9337 548.754 -88.7445C544.836 -90.164 540.825 -91.3942 536.72 -92.6245C533.176 -93.4762 529.538 -94.044 525.993 -93.8547ZM674.683 36.4564C685.317 36.9296 688.675 50.0837 696.79 55.951C697.35 56.3296 698.003 56.7081 698.563 57.0866C701.921 58.9793 706.678 60.4935 711.435 58.4115C708.264 53.2067 705.932 48.3803 702.387 42.0398C700.148 38.0652 692.313 31.2515 691.287 27.7501C690.541 25.1003 691.846 22.3559 691.287 20.0847C689.981 14.5013 684.477 11.9462 682.705 6.26815C690.727 9.39108 692.22 18.7598 697.35 24.6271C699.869 27.5608 704.626 30.0213 708.45 33.3335C713.767 37.9706 717.219 42.9862 723.562 44.5949C729.812 54.2476 739.7 61.8184 740.166 75.7296C737.647 73.9315 736.621 77.433 735.595 78.7578C734.289 73.2691 731.211 69.5783 727.013 67.0232C726.734 67.7803 727.573 69.673 726.547 69.5783C724.961 68.4427 723.842 66.9286 721.976 65.9822C725.521 74.1208 733.45 77.8115 736.062 86.8964C733.543 86.991 733.077 86.1393 731.491 87.3695C729.532 93.3315 736.621 96.3598 733.543 102.227C727.573 92.953 712.648 92.7637 713.861 76.2027C714.7 73.8369 718.152 74.1208 719.364 72.1335C718.432 71.0925 719.084 68.3481 717.872 67.591C708.544 67.8749 703.973 61.0613 698.376 57.0866C697.91 56.8974 697.537 56.6135 697.163 56.3296C696.977 56.2349 696.79 56.0457 696.604 55.951C694.272 54.6262 691.753 53.8691 688.582 54.3423C684.85 66.3608 697.723 67.9696 700.708 76.2974C696.604 75.4457 692.966 72.1335 690.167 74.2154C691.38 76.6759 692.313 79.5149 693.152 82.3539C696.137 86.5178 701.175 87.2749 705.279 90.0193C711.062 93.8993 713.861 101.754 719.924 105.35C721.883 106.107 720.017 103.079 721.976 103.836C725.987 108.662 729.625 113.772 733.077 119.167C738.487 120.87 741.658 124.75 746.136 127.305C746.882 125.602 745.576 122.29 746.136 121.154C747.628 124.561 748.934 128.157 753.225 128.819C752.945 115.476 748.095 106.77 739.14 102.227C739.326 99.8612 740.259 98.2525 741.658 97.1169C749.028 104.498 753.598 114.624 758.822 124.182C759.568 115.665 751.546 110.933 753.785 104.214C756.304 108.189 755.184 115.76 760.315 116.99C762.18 117.179 761.341 114.624 762.367 113.962C767.031 120.302 773.187 125.129 776.452 132.889C772.534 130.05 771.881 123.898 766.378 122.668C771.042 133.267 773.467 146.137 778.971 155.885C788.485 163.645 788.765 180.679 795.575 191.183C796.787 180.679 792.963 175.474 789.512 169.701C789.418 170.648 789.978 172.256 788.485 171.783C789.045 165.916 785.5 159.008 785.5 153.424L785.5 153.329L785.5 152.856C785.5 153.046 785.5 153.235 785.5 153.424C785.5 153.708 785.594 153.897 785.967 153.803C789.418 164.686 795.482 172.729 797.067 185.505C808.168 210.205 810.686 243.421 811.992 278.057C812.086 277.963 812.179 277.963 812.272 277.868C811.899 226.576 801.731 177.461 783.542 132.51C781.769 128.914 780.09 125.318 778.411 121.816C774.493 113.299 770.576 104.971 766.751 96.549C755.557 75.5403 742.591 55.6671 727.946 37.2135C725.334 34.1852 722.629 31.1569 720.017 28.2233C714.887 22.4506 709.85 16.2047 704.533 10.2428C686.996 -8.11623 667.78 -24.6772 646.978 -39.2508C639.516 -43.7933 632.147 -48.2411 625.337 -53.3513C622.912 -54.8655 620.393 -56.285 617.875 -57.7991C612.464 -59.9757 607.614 -63.1933 602.763 -66.0323C600.245 -67.3572 597.726 -68.5874 595.207 -69.8176C594.088 -70.1962 593.062 -70.6694 591.943 -70.9533C596.327 -68.5874 600.711 -66.2215 604.069 -62.8147C602.763 -63.004 602.39 -62.0577 602.577 -60.7328C606.401 -52.2157 615.543 -48.9981 621.233 -42.3738C618.155 -42.2791 615.729 -41.5221 613.677 -40.2918C620.113 -39.2508 620.393 -29.5035 616.662 -24.9611C614.05 -26.1913 613.024 -29.125 609.573 -29.5982C609.759 -25.7182 607.147 -24.5826 605.562 -22.406C615.17 -19.0938 623.472 -14.3621 629.721 -7.54843C634.199 -6.98063 639.702 -7.4538 641.288 -3.95234C637.557 -0.640145 629.162 -1.96502 625.151 1.1579C622.259 2.10424 627.11 4.754 625.151 6.26815C620.207 2.76669 618.621 -4.1416 614.05 -8.0216C605.095 -9.06257 595.021 -11.9962 590.357 -4.99331C596.7 -1.11331 602.763 4.84863 611.998 4.1862C619.647 7.87693 626.27 12.514 630.654 19.5169C636.438 21.1257 639.796 23.8701 644.74 26.1413C648.471 27.8447 652.389 29.3589 655.84 31.2515C662.929 35.0369 667.593 41.1881 673.937 44.0271C674.869 43.1754 673.284 38.1598 674.683 36.4564ZM641.848 -30.5445C644.833 -31.2069 645.486 -29.4089 646.885 -28.4625C646.419 -26.5699 643.807 -30.8284 643.9 -27.9894C643.061 -28.6518 641.941 -29.0304 641.848 -30.5445ZM656.493 -23.3523C660.877 -22.0274 662.929 -18.2421 666.101 -15.687C662.836 -16.1601 658.359 -19.8509 656.493 -23.3523ZM665.541 -21.8382C669.552 -20.5133 674.59 -14.0782 676.082 -10.1035C671.978 -11.3338 668.806 -17.9582 665.541 -21.8382ZM678.134 -5.46648C682.612 -4.04697 689.888 -1.01867 693.712 2.67206C686.996 5.41644 682.705 -2.53282 678.134 -5.46648Z" stroke="#0E1C32" stroke-width="7.73093"/>
<path d="M699.681 410.261L304.077 409.977L303.797 8.63373C303.797 8.63373 2.40679 43.0806 66.3042 464.581C44.2899 150.017 208.091 68.821 275.813 48.7586L275.813 433.541L661.623 433.541C644.459 498.554 568.528 674.29 250.347 651.388C665.634 715.929 699.681 410.261 699.681 410.261ZM740.911 570.382C828.316 468.65 872.064 330.768 844.92 242.664L830.554 242.285C830.554 242.285 828.689 239.068 828.409 234.525L828.316 233.579L828.129 232.633C814.976 142.73 774.493 61.2503 710.968 -3.00623C647.537 -67.452 567.129 -108.523 478.512 -121.867L477.486 -122.056L476.46 -122.151C474.781 -122.245 466.759 -124.327 466.759 -124.327L469.091 -138.901C382.433 -166.345 246.803 -122.245 146.712 -33.857C80.2963 24.7215 -26.1372 152.478 5.85819 350.831C17.9847 443.193 58.7484 526.945 123.765 592.905C188.409 658.581 270.496 699.841 360.978 712.427C386.071 716.686 409.951 718.579 432.711 718.579C587.931 718.673 690.446 629.055 740.911 570.382ZM474.595 -95.4637C554.256 -83.4452 631.027 -46.3486 692.405 15.826C753.691 78.0005 790.257 155.79 802.104 236.513C808.633 324.995 588.49 316.762 395.959 316.762C395.959 121.627 387.843 -101.426 474.595 -95.4637ZM364.523 686.024C283.182 674.763 204.733 637.477 142.235 574.072C79.3635 510.384 42.6108 430.229 31.7903 347.234C-21.0067 23.1128 318.256 -158.679 461.069 -113.35C411.63 -126.788 369.28 -88.2715 369.28 343.828C795.108 343.828 833.073 300.674 819.827 250.613C864.509 395.687 684.85 740.628 364.523 686.024Z" fill="#0E1C32"/>
</g>
</svg>
